<svg version="1.1" viewBox="0.0 0.0 512.9527559055118 266.41207349081367" fill="none" stroke="none" stroke-linecap="square" stroke-miterlimit="10" xmlns:xlink="http://www.w3.org/1999/xlink" xmlns="http://www.w3.org/2000/svg"><clipPath id="p.0"><path d="m0 0l512.95276 0l0 266.41208l-512.95276 0l0 -266.41208z" clip-rule="nonzero"/></clipPath><g clip-path="url(#p.0)"><path fill="#000000" fill-opacity="0.0" d="m0 0l512.95276 0l0 266.41208l-512.95276 0z" fill-rule="evenodd"/><path fill="#000000" fill-opacity="0.0" d="m487.51883 11.818897c0 44.85538 -9.722351 98.74078 -61.6503 128.547c-17.687042 10.152206 -41.661896 14.571777 -63.28885 20.778625c-43.091187 12.366989 -87.29108 25.847 -134.21484 28.878555c-28.456863 1.8384857 -57.084457 -2.3672638 -85.65645 -3.1700592c-22.333847 -0.62750244 -44.319794 3.8462372 -66.56356 5.2839355c-13.87719 0.8969269 -27.38623 -3.458084 -40.918934 -5.6349945" fill-rule="evenodd"/><path stroke="#000000" stroke-width="24.0" stroke-linejoin="round" stroke-linecap="butt" d="m487.51883 11.818897c0 44.85538 -9.722351 98.74078 -61.6503 128.547c-17.687042 10.152206 -41.661896 14.571777 -63.28885 20.778625c-43.091187 12.366989 -87.29108 25.847 -134.21484 28.878555c-28.456863 1.8384857 -57.084457 -2.3672638 -85.65645 -3.1700592c-22.333847 -0.62750244 -44.319794 3.8462372 -66.56356 5.2839355c-13.87719 0.8969269 -27.38623 -3.458084 -40.918934 -5.6349945" fill-rule="evenodd"/><path fill="#000000" fill-opacity="0.0" d="m89.42865 148.29724c-17.03798 4.6427 -33.377357 12.24614 -48.421383 21.494095c-6.3086777 3.8781128 -18.175663 5.2364655 -18.26888 12.641235c-0.14979744 11.898941 13.796236 19.40892 21.231619 28.69992c9.41217 11.761124 19.666424 22.825226 29.713093 34.049194" fill-rule="evenodd"/><path stroke="#000000" stroke-width="24.0" stroke-linejoin="round" stroke-linecap="butt" d="m89.42865 148.29724c-17.03798 4.6427 -33.377357 12.24614 -48.421383 21.494095c-6.3086777 3.8781128 -18.175663 5.2364655 -18.26888 12.641235c-0.14979744 11.898941 13.796236 19.40892 21.231619 28.69992c9.41217 11.761124 19.666424 22.825226 29.713093 34.049194" fill-rule="evenodd"/></g></svg>