<svg version="1.1" viewBox="0.0 0.0 512.2152230971128 239.501312335958" fill="none" stroke="none" stroke-linecap="square" stroke-miterlimit="10" xmlns:xlink="http://www.w3.org/1999/xlink" xmlns="http://www.w3.org/2000/svg"><clipPath id="p.0"><path d="m0 0l512.2152 0l0 239.50131l-512.2152 0l0 -239.50131z" clip-rule="nonzero"/></clipPath><g clip-path="url(#p.0)"><path fill="#000000" fill-opacity="0.0" d="m0 0l512.2152 0l0 239.50131l-512.2152 0z" fill-rule="evenodd"/><path fill="#000000" fill-opacity="0.0" d="m18.359581 18.750963c0 54.09088 19.791538 106.38857 27.433529 159.93689c1.2034187 8.43248 11.621307 25.364609 3.1033936 25.364609c-4.528496 0 -3.3504448 -8.480484 -4.1378555 -12.940002c-3.0300827 -17.160889 -7.4216805 -36.512115 0 -52.279053c5.973934 -12.691292 21.95731 -19.511627 35.712917 -22.25753c16.906761 -3.374939 40.184372 -1.6034622 50.20646 12.424599c12.916901 18.080002 9.027954 43.61766 16.047073 64.7" fill-rule="evenodd"/><path stroke="#ffffff" stroke-width="24.0" stroke-linejoin="round" stroke-linecap="butt" d="m18.359581 18.750963c0 54.09088 19.791538 106.38857 27.433529 159.93689c1.2034187 8.43248 11.621307 25.364609 3.1033936 25.364609c-4.528496 0 -3.3504448 -8.480484 -4.1378555 -12.940002c-3.0300827 -17.160889 -7.4216805 -36.512115 0 -52.279053c5.973934 -12.691292 21.95731 -19.511627 35.712917 -22.25753c16.906761 -3.374939 40.184372 -1.6034622 50.20646 12.424599c12.916901 18.080002 9.027954 43.61766 16.047073 64.7" fill-rule="evenodd"/><path fill="#000000" fill-opacity="0.0" d="m192.67528 125.491234c15.0907135 -1.6820526 30.365372 -0.5190735 45.54953 -0.5190735c4.940689 0 15.244598 1.7798767 14.49353 -3.1033936c-3.1335297 -20.373535 -39.029648 -43.2955 -54.347992 -29.502457c-20.261917 18.244385 -21.822632 63.545097 -1.5535278 81.78152c13.21669 11.891266 40.730896 11.006744 53.313522 -1.5535278" fill-rule="evenodd"/><path stroke="#ffffff" stroke-width="24.0" stroke-linejoin="round" stroke-linecap="butt" d="m192.67528 125.491234c15.0907135 -1.6820526 30.365372 -0.5190735 45.54953 -0.5190735c4.940689 0 15.244598 1.7798767 14.49353 -3.1033936c-3.1335297 -20.373535 -39.029648 -43.2955 -54.347992 -29.502457c-20.261917 18.244385 -21.822632 63.545097 -1.5535278 81.78152c13.21669 11.891266 40.730896 11.006744 53.313522 -1.5535278" fill-rule="evenodd"/><path fill="#000000" fill-opacity="0.0" d="m298.8138 9.692913c0 62.978443 10.943634 126.573425 2.0726013 188.92397" fill-rule="evenodd"/><path stroke="#ffffff" stroke-width="24.0" stroke-linejoin="round" stroke-linecap="butt" d="m298.8138 9.692913c0 62.978443 10.943634 126.573425 2.0726013 188.92397" fill-rule="evenodd"/><path fill="#000000" fill-opacity="0.0" d="m438.8685 116.29309c-7.081543 0 -15.980408 -3.7301025 -21.21939 1.034462c-10.466675 9.518852 -8.229492 27.302101 -9.317535 41.407997c-1.3139343 17.034409 -7.444519 36.412033 1.0344543 51.2446c8.266602 14.461014 32.202698 13.979904 48.656616 11.386459c28.068207 -4.4240875 43.557526 -50.484024 35.193848 -77.639984c-5.9270325 -19.2444 -42.684723 -34.41456 -56.936005 -20.188606" fill-rule="evenodd"/><path stroke="#ffffff" stroke-width="24.0" stroke-linejoin="round" stroke-linecap="butt" d="m438.8685 116.29309c-7.081543 0 -15.980408 -3.7301025 -21.21939 1.034462c-10.466675 9.518852 -8.229492 27.302101 -9.317535 41.407997c-1.3139343 17.034409 -7.444519 36.412033 1.0344543 51.2446c8.266602 14.461014 32.202698 13.979904 48.656616 11.386459c28.068207 -4.4240875 43.557526 -50.484024 35.193848 -77.639984c-5.9270325 -19.2444 -42.684723 -34.41456 -56.936005 -20.188606" fill-rule="evenodd"/><path fill="#000000" fill-opacity="0.0" d="m353.47473 19.525307c0 64.52911 13.73645 130.76877 -1.0344543 193.58456" fill-rule="evenodd"/><path stroke="#ffffff" stroke-width="24.0" stroke-linejoin="round" stroke-linecap="butt" d="m353.47473 19.525307c0 64.52911 13.73645 130.76877 -1.0344543 193.58456" fill-rule="evenodd"/></g></svg>