<svg version="1.1" viewBox="0.0 0.0 512.2152230971128 239.501312335958" fill="none" stroke="none" stroke-linecap="square" stroke-miterlimit="10" xmlns:xlink="http://www.w3.org/1999/xlink" xmlns="http://www.w3.org/2000/svg"><clipPath id="p.0"><path d="m0 0l512.2152 0l0 239.50131l-512.2152 0l0 -239.50131z" clip-rule="nonzero"/></clipPath><g clip-path="url(#p.0)"><path fill="#000000" fill-opacity="0.0" d="m0 0l512.2152 0l0 239.50131l-512.2152 0z" fill-rule="evenodd"/><path fill="#000000" fill-opacity="0.0" d="m160.66667 148.87401c19.744812 12.149826 44.050797 21.21698 67.06561 18.425201c21.56874 -2.6163635 43.172104 -15.099258 56.750656 -32.060364" fill-rule="evenodd"/><path stroke="#ffffff" stroke-width="24.0" stroke-linejoin="round" stroke-linecap="butt" d="m160.66667 148.87401c19.744812 12.149826 44.050797 21.21698 67.06561 18.425201c21.56874 -2.6163635 43.172104 -15.099258 56.750656 -32.060364" fill-rule="evenodd"/><path fill="#ffffff" d="m127.13123 66.14173l0 0c0 -7.018799 5.6898575 -12.70866 12.708656 -12.70866l0 0c3.3705444 0 6.6030426 1.3389435 8.986389 3.7222786c2.3833313 2.383339 3.7222748 5.615837 3.7222748 8.986382l0 0c0 7.018799 -5.689865 12.708664 -12.708664 12.708664l0 0c-7.018799 0 -12.708656 -5.689865 -12.708656 -12.708664z" fill-rule="evenodd"/><path stroke="#ffffff" stroke-width="1.0" stroke-linejoin="round" stroke-linecap="butt" d="m127.13123 66.14173l0 0c0 -7.018799 5.6898575 -12.70866 12.708656 -12.70866l0 0c3.3705444 0 6.6030426 1.3389435 8.986389 3.7222786c2.3833313 2.383339 3.7222748 5.615837 3.7222748 8.986382l0 0c0 7.018799 -5.689865 12.708664 -12.708664 12.708664l0 0c-7.018799 0 -12.708656 -5.689865 -12.708656 -12.708664z" fill-rule="evenodd"/><path fill="#ffffff" d="m275.42783 56.1916l0 0c0 -7.018799 5.68985 -12.70866 12.708649 -12.70866l0 0c3.3705444 0 6.603058 1.3389435 8.986389 3.7222786c2.3833313 2.383339 3.72229 5.615837 3.72229 8.986382l0 0c0 7.018799 -5.6898804 12.70866 -12.708679 12.70866l0 0c-7.018799 0 -12.708649 -5.6898613 -12.708649 -12.70866z" fill-rule="evenodd"/><path stroke="#ffffff" stroke-width="1.0" stroke-linejoin="round" stroke-linecap="butt" d="m275.42783 56.1916l0 0c0 -7.018799 5.68985 -12.70866 12.708649 -12.70866l0 0c3.3705444 0 6.603058 1.3389435 8.986389 3.7222786c2.3833313 2.383339 3.72229 5.615837 3.72229 8.986382l0 0c0 7.018799 -5.6898804 12.70866 -12.708679 12.70866l0 0c-7.018799 0 -12.708649 -5.6898613 -12.708649 -12.70866z" fill-rule="evenodd"/></g></svg>