<svg version="1.2" xmlns="http://www.w3.org/2000/svg" viewBox="0 0 513 240" width="513" height="240"><defs><clipPath clipPathUnits="userSpaceOnUse" id="cp1"><path d="m0 0h512.22v239.5h-512.22z"/></clipPath></defs><style>.a{fill:none}.b{fill:none;stroke:#fff;stroke-linejoin:round;stroke-width:24}.c{fill:#fff}.d{fill:none;stroke:#fff;stroke-linejoin:round}</style><filter id="f0"><feFlood flood-color="#fdfcf8" flood-opacity="1" /><feBlend mode="normal" in2="SourceGraphic"/><feComposite in2="SourceAlpha" operator="in" /></filter><g clip-path="url(#cp1)" filter="url(#f0)"><path fill-rule="evenodd" class="a" d="m0 0h512.2v239.5h-512.2z"/><path fill-rule="evenodd" class="a" d="m160.7 148.9c19.7 12.1 44 21.2 67 18.4 21.6-2.6 43.2-15.1 56.8-32.1"/><path class="b" d="m160.7 148.9c19.7 12.1 44 21.2 67 18.4 21.6-2.6 43.2-15.1 56.8-32.1"/><path fill-rule="evenodd" class="c" d="m127.1 66.1c0-7 5.7-12.7 12.7-12.7 3.4 0 6.6 1.4 9 3.8 2.4 2.3 3.7 5.6 3.7 8.9 0 7.1-5.6 12.8-12.7 12.8-7 0-12.7-5.7-12.7-12.8z"/><path fill-rule="evenodd" class="d" d="m127.1 66.1c0-7 5.7-12.7 12.7-12.7 3.4 0 6.6 1.4 9 3.8 2.4 2.3 3.7 5.6 3.7 8.9 0 7.1-5.6 12.8-12.7 12.8-7 0-12.7-5.7-12.7-12.8z"/><path fill-rule="evenodd" class="c" d="m275.4 56.2c0-7 5.7-12.7 12.7-12.7 3.4 0 6.6 1.3 9 3.7 2.4 2.4 3.7 5.6 3.7 9 0 7-5.6 12.7-12.7 12.7-7 0-12.7-5.7-12.7-12.7z"/><path fill-rule="evenodd" class="d" d="m275.4 56.2c0-7 5.7-12.7 12.7-12.7 3.4 0 6.6 1.3 9 3.7 2.4 2.4 3.7 5.6 3.7 9 0 7-5.6 12.7-12.7 12.7-7 0-12.7-5.7-12.7-12.7z"/></g></svg>